<svg width="512" height="512" xmlns="http://www.w3.org/2000/svg">

 <g>
  <title>background</title>
  <rect fill="none" id="canvas_background" height="402" width="582" y="-1" x="-1"/>
 </g>
 <g>
  <title>Layer 1</title>
  <path fill="#ffffff" id="svg_1" d="m433.800781,80.066406l-70.402343,-70.402344c-6.234376,-6.230468 -14.519532,-9.664062 -23.335938,-9.664062l-221.058594,0c-18.199218,0 -33.003906,14.804688 -33.003906,33.003906l0,445.992188c0,18.199218 14.804688,33.003906 33.003906,33.003906l291.460938,0c18.195312,0 33,-14.804688 33,-33.003906l0,-375.59375c0,-8.816406 -3.433594,-17.101563 -9.664063,-23.335938zm-20.335937,398.929688c0,1.65625 -1.347656,3.003906 -3,3.003906l-291.460938,0c-1.65625,0 -3.003906,-1.347656 -3.003906,-3.003906l0,-445.992188c0,-1.65625 1.347656,-3.003906 3.003906,-3.003906l221.058594,0c0.800781,0 1.554688,0.3125 2.125,0.878906l70.398438,70.402344c0.566406,0.566406 0.878906,1.320312 0.878906,2.121094l0,375.59375zm0,0"/>
  <path fill="#ffffff" id="svg_2" d="m346.472656,164.347656l-163.476562,0c-18.199219,0 -33.003906,14.804688 -33.003906,33l0,220.328125c0,18.195313 14.804687,33 33.003906,33l163.476562,0c18.195313,0 33,-14.804687 33,-33l0,-220.328125c0,-18.195312 -14.804687,-33 -33,-33zm-63.492187,213.558594l0,42.769531l-36.492188,0l0,-42.769531l36.492188,0zm-102.988281,-30l0,-80.789062l169.480468,0l0,80.789062l-169.480468,0zm66.492187,-110.789062l0,-42.769532l36.496094,0l0,42.769532l-36.496094,0zm102.988281,-39.769532l0,39.769532l-36.492187,0l0,-42.769532l33.492187,0c1.65625,0 3,1.34375 3,3zm-166.476562,-3l33.492187,0l0,42.769532l-36.496093,0l0,-39.769532c0,-1.65625 1.347656,-3 3.003906,-3zm-3.003906,223.328125l0,-39.769531l36.496093,0l0,42.769531l-33.492187,0c-1.65625,0 -3.003906,-1.347656 -3.003906,-3zm166.480468,3l-33.492187,0l0,-42.769531l36.492187,0l0,39.769531c0,1.652344 -1.34375,3 -3,3zm0,0"/>
 </g>
</svg>